:SAMPLES-PER-SECOND 30
:FULLY-SPECIFIED
:DEGREES
281
root  34.87711929 36.57326886 -14.091738 10.39585876 -2.148401022 3.780558586
lowerback  -7.662789345 0.5039360523 -0.2683781385
upperback  -4.330900192 1.270889997 -4.627679825
thorax  -0.08448129892 0.8264629841 -4.54640007
lowerneck  -12.93249989 -7.726160049 -4.448709965
upperneck  14.07670021 -11.34150028 7.827579975
head  7.147610188 -5.200459957 2.050750017
lclavicle  0 -4.497500157e-015 -2.743230041e-014
lhumerus  -48.03419876 29.74229813 61.36380005
lradius  -0.01520215627 -6.507048965e-006 29.16469955
lwrist  3.192251654e-007 -3.790274832e-007 -29.7159996
lhand  -0 -36.82770157 -10.24120045
lfingers  90 7.125020027 -90
lthumb  94.69081669 -25.08746133 100.9526103
rclavicle  0 -4.497500157e-015 -2.743230041e-014
rhumerus  12.47039986 -24.29759979 -36.09189987
rradius  -5.16745672e-007 2.214343908e-008 89.34339905
rwrist  0.0006954420824 -0.004670973402 175.279007
rhand  -0 3.112400055 -4.85612011
rfingers  -90 -7.125020027 -90
rthumb  -84.0442551 -10.78909429 -60.869085
rfemur  -11.15247345 14.04165554 12.36851692
rtibia  -0.118364118 -1.157865882 17.92381287
rfoot  1.264167786 -21.41937447 -36.23116684
rtoes  3.844108393 19.641957 -101.3041849
lfemur  -3.741066694 -16.98691559 -22.79808044
ltibia  7.448882103 0.0630460903 6.136780262
lfoot  0.4506452382 -21.80182266 35.34838104
ltoes  -8.585376663 -18.13207512 -115.8791394
282
root  34.87386328 36.57332893 -14.09437225 10.37723446 -2.152131081 3.751839161
lowerback  -7.6842103 0.4707759619 -0.3013445437
upperback  -4.326179981 1.227399945 -4.595739841
thorax  -0.07220450044 0.8048629761 -4.497129917
lowerneck  -12.9307003 -7.647950172 -4.466800213
upperneck  14.15279961 -11.22530079 7.767399788
head  7.161590099 -5.148019791 2.047310114
lclavicle  0 -4.497500157e-015 -2.743230041e-014
lhumerus  -48.09579849 29.78289986 61.38090134
lradius  -0.01666814461 -6.507048965e-006 29.19219971
lwrist  3.192251654e-007 -3.790274832e-007 -29.67359734
lhand  -0 -36.79150009 -10.21730042
lfingers  90 7.125020027 -90
lthumb  94.66923336 -25.0652647 100.9120208
rclavicle  0 -4.497500157e-015 -2.743230041e-014
rhumerus  10.93189812 -24.09819984 -35.70339966
rradius  -5.16745672e-007 2.214343908e-008 90.95559692
rwrist  0.0006954420824 -0.004670973402 174.8860016
rhand  -1.768510709e-031 3.308809996 -4.24612999
rfingers  -90 -7.125020027 -90
rthumb  -83.68830413 -11.32880751 -60.61774152
rfemur  -11.12753677 14.06614876 12.40289402
rtibia  -0.1072169542 -1.125410676 17.9032383
rfoot  1.266787767 -21.37623405 -36.26528168
rtoes  3.833994232 19.64385852 -101.2740972
lfemur  -3.802585602 -17.05461693 -22.73791885
ltibia  7.37718153 0.04376333579 6.288165569
lfoot  0.4382649958 -21.7999115 35.35491943
ltoes  -8.62886698 -18.11196113 -116.0189608
283
root  34.87089563 36.57482478 -14.0972543 10.35453033 -2.153731346 3.752215385
lowerback  -7.707038879 0.4665389955 -0.2982715666
upperback  -4.309999943 1.220589995 -4.586390018
thorax  -0.0434657 0.8009719849 -4.489019871
lowerneck  -12.9428997 -7.597439766 -4.445390224
upperneck  14.20250034 -11.15980053 7.73927021
head  7.172609806 -5.116399765 2.041650057
lclavicle  0 -4.497500157e-015 -2.743230041e-014
lhumerus  -48.05979919 29.73240089 61.46549988
lradius  -0.01815705746 -6.507048965e-006 29.22310066
lwrist  3.192251654e-007 -3.790274832e-007 -29.53730011
lhand  -4.404560901e-031 -36.70750046 -10.33139992
lfingers  90 7.125020027 -90
lthumb  94.65429932 -25.18017779 100.8324777
rclavicle  0 -4.497500157e-015 -2.743230041e-014
rhumerus  9.31264019 -24.02420235 -35.49760056
rradius  -5.16745672e-007 2.214343908e-008 92.46890259
rwrist  0.0006954420824 -0.004670973402 174.7879791
rhand  -1.768824823e-031 3.480360031 -4.557779789
rfingers  -90 -7.125020027 -90
rthumb  -83.79825243 -11.06390751 -60.47926671
rfemur  -11.12301636 14.11684895 12.41078568
rtibia  -0.1115418971 -1.105972767 17.92548561
rfoot  1.260545731 -21.34474182 -36.29731369
rtoes  3.842185163 19.64231898 -101.2984634
lfemur  -3.806363344 -17.08562851 -22.73378944
ltibia  7.360974789 0.01537226699 6.32289505
lfoot  0.4236747622 -21.74107361 35.35932541
ltoes  -8.583886977 -18.13276184 -115.8743527
284
root  34.87015972 36.57772335 -14.09889582 10.35758972 -2.14144206 3.733147383
lowerback  -7.691180229 0.4383850694 -0.3558347821
upperback  -4.290579796 1.183799982 -4.565219879
thorax  -0.03611019999 0.7825869918 -4.436890125
lowerneck  -12.97420025 -7.540040016 -4.412040234
upperneck  14.26550007 -11.08409977 7.693230152
head  7.188869953 -5.079710007 2.028789997
lclavicle  0 -4.497500157e-015 -2.743230041e-014
lhumerus  -48.08480072 29.81620216 61.44739914
lradius  -0.01966593415 -6.507048965e-006 29.26490211
lwrist  3.192251654e-007 -3.790274832e-007 -29.51420021
lhand  -4.39971065e-031 -36.62269974 -10.45149994
lfingers  90 7.125020027 -90
lthumb  94.63993475 -25.30104937 100.7525964
rclavicle  0 -4.497500157e-015 -2.743230041e-014
rhumerus  7.697179317 -23.91469955 -35.24369812
rradius  -5.16745672e-007 2.214343908e-008 93.99459839
rwrist  0.0006954420824 -0.004670973402 174.5469971
rhand  -1.769555065e-031 3.849570036 -4.621349812
rfingers  -90 -7.125020027 -90
rthumb  -83.73115541 -11.02335098 -60.12239063
rfemur  -11.11910248 14.13220501 12.42702293
rtibia  -0.1007521749 -1.090931177 17.89952087
rfoot  1.278770447 -21.31058502 -36.30605698
rtoes  3.853686887 19.64015137 -101.3326815
lfemur  -3.962902308 -17.07345772 -22.64291382
ltibia  7.242991924 0.04276100174 6.565056324
lfoot  0.4414024651 -21.877882 35.35057831
ltoes  -8.562800085 -18.1424666 -115.8066146
